HIERARCHY
ROOT hip
{
	OFFSET 0.000000 0.000000 0.000000
	CHANNELS 6 Xposition Yposition Zposition Xrotation Zrotation Yrotation 
	JOINT abdomen
	{
		OFFSET 0.000000 3.422050 0.000000
		CHANNELS 3 Xrotation Zrotation Yrotation 
		JOINT chest
		{
			OFFSET 0.000000 8.486693 -0.684411
			CHANNELS 3 Xrotation Zrotation Yrotation 
			JOINT neck
			{
				OFFSET 0.000000 10.266162 -0.273764
				CHANNELS 3 Xrotation Zrotation Yrotation 
				JOINT head
				{
					OFFSET 0.000000 3.148285 0.000000
					CHANNELS 3 Xrotation Zrotation Yrotation 
					End Site
					{
						OFFSET 0.000000 3.148289 0.000000
					}
				}
			}
			JOINT lCollar
			{
				OFFSET 3.422053 6.707223 -0.821293
				CHANNELS 3 Yrotation Zrotation Xrotation 
				JOINT lShldr
				{
					OFFSET 3.285171 0.000000 0.000000
					CHANNELS 3 Zrotation Yrotation Xrotation 
					JOINT lForeArm
					{
						OFFSET 10.129278 0.000000 0.000000
						CHANNELS 3 Yrotation Zrotation Xrotation 
						JOINT lHand
						{
							OFFSET 8.486692 0.000000 0.000000
							CHANNELS 3 Zrotation Yrotation Xrotation 
							End Site
							{
								OFFSET 4.106464 0.000000 0.000000
							}
						}
					}
				}
			}
			JOINT rCollar
			{
				OFFSET -3.558935 6.707223 -0.821293
				CHANNELS 3 Yrotation Zrotation Xrotation 
				JOINT rShldr
				{
					OFFSET -3.148289 0.000000 0.000000
					CHANNELS 3 Zrotation Yrotation Xrotation 
					JOINT rForeArm
					{
						OFFSET -10.266159 0.000000 0.000000
						CHANNELS 3 Yrotation Zrotation Xrotation 
						JOINT rHand
						{
							OFFSET -8.349810 0.000000 0.000000
							CHANNELS 3 Zrotation Yrotation Xrotation 
							End Site
							{
								OFFSET -4.106464 0.000000 0.000000
							}
						}
					}
				}
			}
		}
	}
	JOINT lThigh
	{
		OFFSET 5.338403 -1.642589 1.368821
		CHANNELS 3 Xrotation Zrotation Yrotation 
		JOINT lShin
		{
			OFFSET -2.053232 -20.121670 0.000000
			CHANNELS 3 Xrotation Zrotation Yrotation 
			JOINT lFoot
			{
				OFFSET 0.000000 -19.300380 -1.231939
				CHANNELS 3 Xrotation Yrotation Zrotation 
				End Site
				{
					OFFSET 0.000000 -2.463878 4.653993
				}
			}
		}
	}
	JOINT rThigh
	{
		OFFSET -5.338403 -1.642589 1.368821
		CHANNELS 3 Xrotation Zrotation Yrotation 
		JOINT rShin
		{
			OFFSET 2.053232 -20.121670 0.000000
			CHANNELS 3 Xrotation Zrotation Yrotation 
			JOINT rFoot
			{
				OFFSET 0.000000 -19.300380 -1.231939
				CHANNELS 3 Xrotation Yrotation Zrotation 
				End Site
				{
					OFFSET 0.000000 -2.463878 4.653993
				}
			}
		}
	}
}
MOTION
Frames: 11
Frame Time: 0.033264
0.000000 43.528500 0.000000 0.000000 0.000000 0.000000 0.000000 0.000000 0.000000 0.000000 0.000000 0.000000 0.000000 0.000000 0.000000 0.000000 0.000000 0.000000 0.000000 0.000000 0.000000 0.000000 0.000000 0.000000 0.000000 0.000000 0.000000 0.000000 0.000000 0.000000 0.000000 0.000000 0.000000 0.000000 0.000000 0.000000 0.000000 0.000000 0.000000 0.000000 0.000000 0.000000 0.000000 0.000000 0.000000 0.000000 0.000000 0.000000 0.000000 0.000000 0.000000 0.000000 0.000000 0.000000 0.000000 0.000000 0.000000 0.000000 0.000000 0.000000 
0.000001 42.996826 -32.004837 39.997601 0.000000 0.000000 64.088127 -1.317845 -1.536633 -1.935281 -1.289843 -0.676036 -40.001324 0.000000 0.000000 -1.159315 0.000000 0.000000 65.175766 -29.223196 37.623295 -26.701437 24.517097 40.823875 -3.315530 2.885908 -0.397664 -5.553570 13.107504 0.075136 -62.661407 29.999868 35.839275 26.056299 -23.922394 40.709850 11.594309 0.401404 -0.218263 7.234993 13.126912 0.196889 -40.765160 14.876374 -10.766418 10.517081 -0.899556 -0.242583 -3.459249 8.843985 4.172257 -43.075485 -9.139458 5.892505 10.261879 -0.054114 0.309387 -5.181202 -3.855674 -0.799742 
0.000001 42.996826 -32.004837 39.997604 0.000000 0.000000 63.755001 -1.317878 -1.536499 -1.269716 -1.289873 -0.676092 -40.611725 0.000000 0.000000 -2.311808 0.000000 0.000000 64.916519 -29.455103 37.357685 -26.861774 24.594641 40.758087 -3.315530 2.885908 -0.397664 -5.553570 13.107504 0.075136 -62.419147 30.210056 35.572132 26.056299 -23.922394 40.709850 11.594309 0.401404 -0.218264 7.234993 13.126913 0.196889 -40.716461 15.035801 -10.618563 10.378547 -1.193636 -0.221173 -3.410224 8.654069 4.331510 -43.061974 -9.288606 5.312437 10.261878 -0.054114 0.309387 -5.228125 -3.244137 -0.853621 
0.000001 42.996826 -32.004837 39.997601 0.000000 0.000000 63.421837 -1.317910 -1.536366 -0.603791 -1.289903 -0.676149 -41.222416 0.000000 0.000000 -3.466184 0.000000 0.000000 64.655388 -29.685980 37.090218 -27.022314 24.672012 40.692017 -3.315530 2.885908 -0.397664 -5.553570 13.107504 0.075136 -62.175194 30.419287 35.303352 26.056293 -23.922390 40.709843 11.594310 0.401404 -0.218264 7.234993 13.126912 0.196889 -40.667297 15.195115 -10.470451 10.239871 -1.487701 -0.199045 -3.360686 8.464273 4.490859 -43.046936 -9.437678 4.731834 10.261879 -0.054114 0.309387 -5.274466 -2.632272 -0.906994 
0.000001 42.996826 -32.004837 39.997604 0.000000 0.000000 63.088619 -1.317942 -1.536232 0.062450 -1.289932 -0.676205 -41.833344 0.000000 0.000000 -4.622211 0.000000 0.000000 64.392387 -29.915827 36.820892 -27.183054 24.749218 40.625660 -3.315530 2.885908 -0.397664 -5.553570 13.107505 0.075136 -61.929558 30.627552 35.032928 26.056299 -23.922394 40.709850 11.594309 0.401404 -0.218263 7.234993 13.126913 0.196889 -40.617672 15.354315 -10.322078 10.101042 -1.781745 -0.176200 -3.310635 8.274603 4.650309 -43.030346 -9.586649 4.150717 10.261880 -0.054114 0.309387 -5.320235 -2.020117 -0.959870 
0.000001 42.996826 -32.004837 39.997601 0.000000 0.000000 62.755375 -1.317973 -1.536099 0.728961 -1.289960 -0.676263 -42.444481 0.000000 0.000000 -5.779658 0.000000 0.000000 64.127518 -30.144630 36.549713 -27.344004 24.826263 40.559032 -3.315530 2.885908 -0.397664 -5.553570 13.107504 0.075136 -61.682224 30.834835 34.760857 26.056299 -23.922394 40.709850 11.594308 0.401404 -0.218263 7.234993 13.126911 0.196889 -40.567581 15.513398 -10.173441 9.962060 -2.075762 -0.152636 -3.260072 8.085057 4.809858 -43.012207 -9.735497 3.569108 10.261879 -0.054114 0.309387 -5.365442 -1.407708 -1.012258 
0.000001 42.996826 -32.004837 39.997601 0.000000 0.000000 62.422096 -1.318003 -1.535965 1.395698 -1.289988 -0.676320 -43.055790 0.000000 0.000000 -6.938290 0.000000 0.000000 63.860741 -30.372356 36.276630 -27.505150 24.903135 40.492119 -3.315529 2.885907 -0.397664 -5.553570 13.107504 0.075136 -61.433193 31.041126 34.487141 26.056293 -23.922392 40.709850 11.594309 0.401404 -0.218263 7.234993 13.126912 0.196889 -40.517017 15.672362 -10.024542 9.822918 -2.369744 -0.128352 -3.208997 7.895645 4.969512 -42.992527 -9.884192 2.987033 10.261879 -0.054114 0.309387 -5.410091 -0.795080 -1.064167 
0.000001 42.996826 -32.004837 39.997601 0.000000 0.000000 62.088802 -1.318033 -1.535831 2.062616 -1.290015 -0.676378 -43.667236 0.000000 0.000000 -8.097874 0.000000 0.000000 63.592060 -30.598991 36.001667 -27.666500 24.979837 40.424927 -3.315530 2.885908 -0.397664 -5.553570 13.107504 0.075136 -61.182446 31.246391 34.211754 26.056299 -23.922394 40.709850 11.594309 0.401404 -0.218263 7.234993 13.126912 0.196889 -40.465984 15.831203 -9.875374 9.683611 -2.663685 -0.103346 -3.157411 7.706364 5.129269 -42.971298 -10.032717 2.404513 10.261879 -0.054114 0.309387 -5.454191 -0.182270 -1.115606 
0.000001 42.996826 -32.004837 39.997604 0.000000 0.000000 61.755489 -1.318061 -1.535696 2.729669 -1.290041 -0.676436 -44.278797 0.000000 0.000000 -9.258169 0.000000 0.000000 63.321476 -30.824528 35.724808 -27.828045 25.056364 40.357445 -3.315530 2.885908 -0.397664 -5.553570 13.107504 0.075136 -60.929981 31.450634 33.934704 26.056299 -23.922394 40.709850 11.594309 0.401404 -0.218263 7.234993 13.126912 0.196889 -40.414471 15.989919 -9.725937 9.544132 -2.957578 -0.077616 -3.105313 7.517221 5.289132 -42.948532 -10.181046 1.821573 10.261879 -0.054114 0.309387 -5.497749 0.430684 -1.166583 
0.000001 42.996826 -32.004837 39.997601 0.000000 0.000000 61.422165 -1.318089 -1.535562 3.396813 -1.290067 -0.676494 -44.890408 0.000000 0.000000 -10.418944 0.000000 0.000000 63.048965 -31.048937 35.446045 -27.989801 25.132725 40.289688 -3.315530 2.885908 -0.397664 -5.553570 13.107504 0.075136 -60.675800 31.653830 33.655979 26.056299 -23.922394 40.709850 11.594309 0.401404 -0.218263 7.234993 13.126913 0.196889 -40.362488 16.148500 -9.576229 9.404479 -3.251418 -0.051162 -3.052706 7.328221 5.449104 -42.924198 -10.329152 1.238236 10.261879 -0.054114 0.309387 -5.540773 1.043749 -1.217107 
0.000001 42.996826 -32.004837 39.997604 0.000000 0.000000 61.088837 -1.318116 -1.535427 4.064003 -1.290092 -0.676553 -45.502071 0.000000 0.000000 -11.579954 0.000000 0.000000 62.774540 -31.272209 35.165371 -28.151756 25.208910 40.221649 -3.315530 2.885908 -0.397664 -5.553570 13.107505 0.075136 -60.419914 31.855982 33.375595 26.056299 -23.922394 40.709850 11.594310 0.401404 -0.218264 7.234993 13.126912 0.196889 -40.310040 16.306957 -9.426252 9.264645 -3.545197 -0.023982 -2.999588 7.139365 5.609185 -42.898335 -10.477018 0.654528 10.261879 -0.054114 0.309387 -5.583271 1.656887 -1.267186 
